<svg width="729" height="87" viewBox="0 0 729 87" fill="none" xmlns="http://www.w3.org/2000/svg">
<path d="M34.6713 29.5342L10.3658 15.5157C9.5777 15.0632 8.70819 14.7704 7.80692 14.6539C6.90565 14.5375 5.99025 14.5996 5.11301 14.837C4.23578 15.0743 3.41389 15.4821 2.69425 16.037C1.97461 16.592 1.37132 17.2832 0.918825 18.0713C0.466335 18.8594 0.173502 19.7289 0.0570496 20.6302C-0.0594029 21.5315 0.00281558 22.4469 0.240129 23.3241C0.477443 24.2014 0.88521 25.0232 1.44016 25.7429C1.99511 26.4625 2.68638 27.0658 3.47448 27.5183L27.7799 41.5368C29.3678 42.4535 31.2548 42.7019 33.0257 42.2273C34.7967 41.7527 36.3066 40.5941 37.2233 39.0062C38.14 37.4183 38.3884 35.5314 37.9138 33.7604C37.4392 31.9894 36.2806 30.4795 34.6927 29.5628L34.6713 29.5342Z" fill="white"/>
<path d="M83.0817 15.5155L58.7762 1.50409C57.1883 0.587399 55.3014 0.339049 53.5304 0.813633C51.7594 1.28822 50.2495 2.44689 49.3328 4.03474C48.4162 5.6226 48.1678 7.50955 48.6424 9.28053C49.1169 11.0515 50.2756 12.5614 51.8635 13.4781L76.1689 27.4895C77.7568 28.4062 79.6437 28.6546 81.4147 28.18C83.1857 27.7054 84.6956 26.5467 85.6123 24.9589C86.529 23.371 86.7774 21.484 86.3028 19.7131C85.8282 17.9421 84.6695 16.4322 83.0817 15.5155Z" fill="white"/>
<path d="M75.2112 29.155L63.8806 22.614L51.8922 29.5339C51.106 29.9878 50.4169 30.5921 49.8642 31.3123C49.3116 32.0325 48.9061 32.8545 48.6712 33.7314C48.4362 34.6083 48.3762 35.5229 48.4947 36.423C48.6131 37.3231 48.9077 38.191 49.3616 38.9773C49.8155 39.7635 50.4198 40.4526 51.1401 41.0053C51.8603 41.5579 52.6823 41.9634 53.5592 42.1983C54.4361 42.4333 55.3507 42.4933 56.2508 42.3748C57.1509 42.2564 58.0188 41.9618 58.805 41.5079L78.3209 30.2416C77.2256 30.0767 76.1708 29.7081 75.2112 29.155V29.155Z" fill="white"/>
<path d="M11.3381 13.8507L22.683 20.3703L34.6713 13.4504C35.525 13.0356 36.2841 12.4495 36.9014 11.7285C37.5187 11.0076 37.9809 10.1673 38.2592 9.25987C38.5375 8.35249 38.6261 7.3975 38.5192 6.45442C38.4124 5.51135 38.1125 4.60041 37.6382 3.7783C37.1639 2.95619 36.5254 2.24052 35.7625 1.67593C34.9996 1.11135 34.1286 0.70994 33.2037 0.49667C32.2789 0.2834 31.3201 0.262857 30.3869 0.436327C29.4538 0.609798 28.5664 0.973545 27.78 1.50494L8.26416 12.7712C9.34649 12.9389 10.3886 13.3048 11.3381 13.8507V13.8507Z" fill="white"/>
<path d="M113.793 35.125C111.32 33.7246 109.274 31.6787 107.874 29.2059C106.448 26.6589 105.7 23.7891 105.7 20.8705C105.7 17.952 106.448 15.0822 107.874 12.5352C109.274 10.0623 111.32 8.01646 113.793 6.6161C116.279 5.1867 119.102 4.44639 121.971 4.4715C124.203 4.45924 126.416 4.87667 128.49 5.70105C130.409 6.44524 132.124 7.63342 133.494 9.16818L130.821 11.8418C129.802 10.5807 128.482 9.59715 126.982 8.98231C125.396 8.32287 123.695 7.98744 121.978 7.99579C119.82 7.98854 117.697 8.54021 115.816 9.59709C113.903 10.6623 112.313 12.223 111.212 14.115C110.077 16.178 109.482 18.4944 109.482 20.8491C109.482 23.2037 110.077 25.5202 111.212 27.5832C112.313 29.4752 113.903 31.0358 115.816 32.1011C118.199 33.5189 120.99 34.0932 123.739 33.7314C126.488 33.3696 129.036 32.0928 130.971 30.1066C131.765 29.233 132.39 28.2199 132.815 27.1185C133.291 25.8999 133.574 24.6142 133.652 23.3082H122.071V19.8411H137.154C137.297 20.593 137.371 21.3563 137.376 22.1216C137.379 24.0371 137.067 25.94 136.454 27.7547C135.855 29.5596 134.849 31.2029 133.516 32.5586C130.566 35.6897 126.72 37.2553 121.978 37.2553C119.109 37.2826 116.284 36.5474 113.793 35.125V35.125Z" fill="white"/>
<path d="M145.569 35.7627C143.886 34.7678 142.512 33.3249 141.601 31.595C140.667 29.7696 140.179 27.7481 140.179 25.6973C140.179 23.6465 140.667 21.6251 141.601 19.7997C142.512 18.0697 143.886 16.6268 145.569 15.632C147.325 14.6384 149.309 14.1162 151.327 14.1162C153.345 14.1162 155.329 14.6384 157.085 15.632C158.778 16.6235 160.162 18.0666 161.082 19.7997C162.016 21.6251 162.504 23.6465 162.504 25.6973C162.504 27.7481 162.016 29.7696 161.082 31.595C160.162 33.328 158.778 34.7711 157.085 35.7627C155.329 36.7563 153.345 37.2784 151.327 37.2784C149.309 37.2784 147.325 36.7563 145.569 35.7627V35.7627ZM155.005 32.9032C156.16 32.2156 157.106 31.2272 157.743 30.0437C158.42 28.7037 158.772 27.2235 158.772 25.7223C158.772 24.2211 158.42 22.741 157.743 21.401C157.105 20.2183 156.159 19.2302 155.005 18.5415C153.892 17.8719 152.616 17.5208 151.316 17.5264C150.033 17.5248 148.775 17.876 147.678 18.5415C146.521 19.2263 145.574 20.2153 144.94 21.401C144.259 22.7396 143.904 24.2203 143.904 25.7223C143.904 27.2243 144.259 28.7051 144.94 30.0437C145.573 31.2303 146.52 32.2196 147.678 32.9032C148.777 33.5635 150.035 33.9119 151.316 33.9111C152.616 33.912 153.891 33.5586 155.005 32.8889V32.9032Z" fill="white"/>
<path d="M170.447 35.7635C168.761 34.7709 167.384 33.3276 166.473 31.5958C165.538 29.7704 165.05 27.749 165.05 25.6982C165.05 23.6474 165.538 21.6259 166.473 19.8005C167.384 18.0687 168.761 16.6254 170.447 15.6328C172.18 14.6156 174.157 14.0916 176.166 14.1173C178.191 14.0886 180.186 14.6126 181.935 15.6328C183.628 16.6244 185.012 18.0675 185.931 19.8005C186.866 21.6259 187.353 23.6474 187.353 25.6982C187.353 27.749 186.866 29.7704 185.931 31.5958C185.012 33.3289 183.628 34.772 181.935 35.7635C180.186 36.7838 178.191 37.3078 176.166 37.279C174.157 37.3048 172.18 36.7807 170.447 35.7635V35.7635ZM179.876 32.904C181.031 32.2164 181.977 31.2281 182.614 30.0446C183.291 28.7046 183.643 27.2244 183.643 25.7232C183.643 24.222 183.291 22.7418 182.614 21.4018C181.976 20.2192 181.03 19.2311 179.876 18.5424C178.764 17.8678 177.488 17.5117 176.188 17.5129C174.905 17.5114 173.646 17.8625 172.549 18.528C171.393 19.2148 170.447 20.2034 169.811 21.3875C169.13 22.7262 168.775 24.2069 168.775 25.7089C168.775 27.2109 169.13 28.6916 169.811 30.0303C170.446 31.2153 171.393 32.2041 172.549 32.8897C173.648 33.55 174.906 33.8985 176.188 33.8977C177.486 33.9029 178.761 33.5544 179.876 32.8897V32.904Z" fill="white"/>
<path d="M194.259 44.8646C192.719 43.7762 191.543 42.2491 190.884 40.4825L194.352 39.0527C194.776 40.3236 195.598 41.4241 196.696 42.191C197.871 43.0102 199.275 43.4335 200.707 43.3991C203.013 43.3991 204.791 42.7271 206.04 41.3832C207.288 40.0392 207.91 38.1663 207.905 35.7644V33.441H207.712C206.955 34.6027 205.914 35.5524 204.689 36.2004C203.318 36.9492 201.775 37.3286 200.213 37.3013C198.393 37.3079 196.61 36.7865 195.081 35.8001C193.478 34.7792 192.175 33.3507 191.306 31.661C190.385 29.815 189.905 27.78 189.905 25.7169C189.905 23.6537 190.385 21.6188 191.306 19.7728C192.178 18.0848 193.48 16.6569 195.081 15.6337C196.612 14.6524 198.394 14.1337 200.213 14.1396C201.774 14.1134 203.316 14.4901 204.689 15.2334C205.915 15.8842 206.955 16.8362 207.712 17.9999H207.891V14.8402H211.465V35.7214C211.524 37.8434 211.031 39.9443 210.036 41.8193C209.165 43.4225 207.826 44.7218 206.197 45.5437C204.486 46.3845 202.599 46.8059 200.692 46.7733C198.396 46.8643 196.134 46.1932 194.259 44.8646ZM204.353 32.9049C205.466 32.2067 206.368 31.2181 206.962 30.0454C207.646 28.6932 207.985 27.1926 207.948 25.6776C207.984 24.1558 207.645 22.6485 206.962 21.2883C206.375 20.1108 205.472 19.1204 204.353 18.4288C203.273 17.7833 202.036 17.4469 200.778 17.4566C199.517 17.4455 198.278 17.7898 197.204 18.4503C196.089 19.1488 195.184 20.1372 194.587 21.3097C193.938 22.6743 193.601 24.1664 193.601 25.6776C193.601 27.1887 193.938 28.6809 194.587 30.0454C195.181 31.2201 196.086 32.2091 197.204 32.9049C198.275 33.5549 199.504 33.8986 200.757 33.8986C202.01 33.8986 203.239 33.5549 204.31 32.9049H204.353Z" fill="white"/>
<path d="M216.498 5.16565H220.23V36.5769H216.498V5.16565Z" fill="white"/>
<path d="M229.066 35.7861C227.416 34.7956 226.073 33.368 225.184 31.6613C224.218 29.8243 223.727 27.7748 223.755 25.6993C223.732 23.6858 224.183 21.6952 225.07 19.8875C225.904 18.1637 227.201 16.7058 228.816 15.6769C230.49 14.6243 232.436 14.0827 234.413 14.1185C236.358 14.0781 238.277 14.5727 239.961 15.5482C241.551 16.4962 242.825 17.8942 243.621 19.5658C244.501 21.4277 244.936 23.4687 244.893 25.5278C244.906 25.8235 244.877 26.1194 244.807 26.4071H227.55C227.562 27.8712 227.972 29.3046 228.737 30.5533C229.41 31.6249 230.358 32.4964 231.482 33.0768C232.531 33.6215 233.696 33.9059 234.878 33.906C237.632 33.906 239.753 32.562 241.24 29.8741L244.529 31.454C243.619 33.1744 242.282 34.6318 240.647 35.686C238.895 36.716 236.903 37.268 234.871 37.2868C232.838 37.3056 230.837 36.7906 229.066 35.7933V35.7861ZM240.976 23.2831C240.914 22.3675 240.671 21.4734 240.261 20.6524C239.766 19.7234 239.023 18.9491 238.116 18.4149C236.978 17.7587 235.676 17.439 234.363 17.4927C232.785 17.4586 231.253 18.023 230.074 19.0725C228.852 20.1722 228.047 21.6592 227.794 23.2831H240.976Z" fill="white"/>
<path d="M259.183 5.16644H268.705C271.636 5.09819 274.536 5.78504 277.126 7.16094C279.467 8.43854 281.386 10.3681 282.652 12.7154C283.921 15.2471 284.582 18.0401 284.582 20.8721C284.582 23.7041 283.921 26.497 282.652 29.0287C281.386 31.376 279.467 33.3056 277.126 34.5832C274.535 35.9567 271.636 36.6434 268.705 36.5777H259.183V5.16644ZM268.705 33.0462C272.417 33.0462 275.355 31.9787 277.519 29.8436C279.683 27.7086 280.764 24.7252 280.764 20.8935C280.764 17.0809 279.683 14.0975 277.519 11.9434C275.355 9.78927 272.417 8.72171 268.705 8.74077H262.914V33.0462H268.705Z" fill="white"/>
<path d="M293.017 35.7861C291.368 34.7956 290.024 33.368 289.135 31.6613C288.169 29.8243 287.678 27.7748 287.706 25.6993C287.683 23.6858 288.134 21.6952 289.021 19.8875C289.857 18.1652 291.154 16.7078 292.767 15.6769C294.442 14.6243 296.387 14.0827 298.364 14.1185C300.31 14.0781 302.228 14.5727 303.912 15.5482C305.505 16.4928 306.779 17.8918 307.572 19.5658C308.452 21.4277 308.888 23.4687 308.844 25.5278C308.857 25.8235 308.828 26.1194 308.759 26.4071H291.502C291.51 27.8717 291.921 29.3059 292.688 30.5533C293.36 31.6231 294.305 32.4942 295.426 33.0768C296.478 33.6207 297.645 33.9051 298.829 33.906C301.574 33.906 303.695 32.562 305.191 29.8741L308.48 31.454C307.57 33.1744 306.234 34.6318 304.598 35.686C302.846 36.716 300.854 37.268 298.822 37.2868C296.79 37.3056 294.788 36.7906 293.017 35.7933V35.7861ZM304.934 23.2831C304.872 22.3675 304.629 21.4734 304.219 20.6524C303.724 19.7234 302.982 18.9491 302.075 18.4149C300.936 17.7587 299.635 17.439 298.321 17.4927C296.744 17.4586 295.211 18.023 294.032 19.0725C292.811 20.1722 292.005 21.6592 291.752 23.2831H304.934Z" fill="white"/>
<path d="M309.752 14.8188H313.784L320.454 32.1901H320.54L327.295 14.8188H331.248L322.341 36.5793H318.567L309.752 14.8188Z" fill="white"/>
<path d="M338.062 35.7862C336.416 34.7916 335.073 33.365 334.18 31.6614C333.217 29.8232 332.726 27.7745 332.75 25.6994C332.728 23.6859 333.179 21.6952 334.066 19.8876C334.904 18.1647 336.203 16.7075 337.819 15.677C339.491 14.6253 341.434 14.0838 343.409 14.1186C345.354 14.0774 347.273 14.572 348.956 15.5483C350.549 16.4958 351.825 17.8938 352.624 19.5659C353.5 21.429 353.936 23.4692 353.896 25.5279C353.911 25.824 353.88 26.1206 353.803 26.4071H336.553C336.559 27.8712 336.968 29.3054 337.733 30.5534C338.409 31.6225 339.356 32.4934 340.478 33.0769C341.527 33.6208 342.692 33.9051 343.874 33.9061C346.628 33.9061 348.749 32.5621 350.236 29.8742L353.532 31.4541C352.617 33.1728 351.278 34.6294 349.643 35.6861C347.891 36.7161 345.899 37.2681 343.867 37.2869C341.834 37.3057 339.833 36.7907 338.062 35.7933V35.7862ZM349.972 23.2832C349.909 22.3677 349.666 21.4736 349.257 20.6525C348.766 19.7203 348.023 18.945 347.112 18.4149C345.976 17.759 344.677 17.4392 343.366 17.4927C341.788 17.4573 340.255 18.0219 339.077 19.0726C337.855 20.1722 337.05 21.6592 336.797 23.2832H349.972Z" fill="white"/>
<path d="M357.692 5.16565H361.41V36.5769H357.692V5.16565Z" fill="white"/>
<path d="M370.373 35.7635C368.692 34.7688 367.321 33.3257 366.413 31.5958C365.478 29.7704 364.991 27.749 364.991 25.6982C364.991 23.6474 365.478 21.6259 366.413 19.8005C367.325 18.0687 368.701 16.6254 370.388 15.6328C372.12 14.6156 374.098 14.0916 376.107 14.1173C378.132 14.0886 380.126 14.6126 381.876 15.6328C383.568 16.6244 384.952 18.0675 385.872 19.8005C386.806 21.6259 387.294 23.6474 387.294 25.6982C387.294 27.749 386.806 29.7704 385.872 31.5958C384.952 33.3289 383.568 34.772 381.876 35.7635C380.126 36.7838 378.132 37.3078 376.107 37.279C374.093 37.3074 372.11 36.7832 370.373 35.7635V35.7635ZM379.802 32.904C380.957 32.2164 381.903 31.2281 382.54 30.0446C383.217 28.7046 383.57 27.2244 383.57 25.7232C383.57 24.222 383.217 22.7418 382.54 21.4018C381.902 20.2192 380.956 19.2311 379.802 18.5424C378.689 17.8728 377.413 17.5217 376.114 17.5273C374.831 17.5257 373.572 17.8769 372.475 18.5424C371.321 19.2311 370.375 20.2192 369.737 21.4018C369.056 22.7405 368.701 24.2212 368.701 25.7232C368.701 27.2252 369.056 28.7059 369.737 30.0446C370.374 31.2281 371.32 32.2164 372.475 32.904C373.574 33.5643 374.832 33.9128 376.114 33.912C377.413 33.9129 378.689 33.5595 379.802 32.8897V32.904Z" fill="white"/>
<path d="M390.718 14.8187H394.293V18.0213H394.464C395.226 16.8562 396.265 15.8982 397.488 15.2333C398.887 14.4697 400.462 14.0853 402.056 14.1182C403.892 14.1099 405.69 14.6365 407.232 15.6337C408.829 16.6619 410.128 18.0917 410.999 19.7799C411.925 21.6157 412.407 23.643 412.407 25.699C412.407 27.755 411.925 29.7823 410.999 31.6181C410.128 33.3063 408.829 34.7361 407.232 35.7643C405.69 36.7615 403.892 37.2881 402.056 37.2798C400.455 37.3119 398.873 36.9251 397.467 36.1575C396.225 35.4936 395.188 34.5053 394.464 33.298H394.293L394.464 36.3291V46.0227H390.718V14.8187ZM405.016 32.8906C406.135 32.1934 407.045 31.2051 407.646 30.0311C408.296 28.683 408.633 27.206 408.633 25.7097C408.633 24.2135 408.296 22.7364 407.646 21.3883C407.044 20.2152 406.135 19.2271 405.016 18.5289C403.945 17.8577 402.705 17.5055 401.441 17.5138C400.18 17.5049 398.942 17.8492 397.867 18.5074C396.74 19.1984 395.827 20.1882 395.229 21.3669C394.584 22.7276 394.25 24.2146 394.25 25.7204C394.25 27.2262 394.584 28.7133 395.229 30.074C395.825 31.254 396.739 32.2442 397.867 32.9334C398.944 33.5864 400.182 33.9279 401.441 33.92C402.706 33.9208 403.945 33.5639 405.016 32.8906V32.8906Z" fill="white"/>
<path d="M421.05 35.7862C419.404 34.7916 418.061 33.365 417.168 31.6614C416.205 29.8232 415.714 27.7745 415.739 25.6994C415.716 23.6859 416.167 21.6952 417.054 19.8876C417.893 18.1647 419.192 16.7075 420.807 15.677C422.479 14.6253 424.422 14.0838 426.397 14.1186C428.343 14.0774 430.262 14.572 431.945 15.5483C433.537 16.4958 434.813 17.8938 435.612 19.5659C436.489 21.429 436.924 23.4692 436.884 25.5279C436.899 25.824 436.868 26.1206 436.791 26.4071H419.513C419.519 27.8712 419.927 29.3054 420.693 30.5534C421.368 31.6225 422.316 32.4933 423.438 33.0769C424.487 33.62 425.652 33.9043 426.833 33.9061C429.588 33.9061 431.709 32.5621 433.196 29.8742L436.491 31.4541C435.578 33.1719 434.242 34.6285 432.61 35.6861C430.856 36.716 428.863 37.268 426.83 37.2868C424.796 37.3056 422.794 36.7906 421.022 35.7933L421.05 35.7862ZM432.967 23.2832C432.905 22.3677 432.662 21.4736 432.252 20.6525C431.761 19.7203 431.018 18.945 430.107 18.4149C428.971 17.759 427.672 17.4392 426.362 17.4927C424.796 17.4663 423.277 18.0304 422.108 19.0726C420.887 20.1722 420.081 21.6592 419.828 23.2832H432.967Z" fill="white"/>
<path d="M440.681 14.8178H444.255V18.3921H444.434C444.899 17.1221 445.791 16.0532 446.957 15.3683C448.073 14.5974 449.39 14.17 450.746 14.1387C451.614 14.1303 452.476 14.278 453.291 14.5748V18.5708C452.342 18.0929 451.286 17.8665 450.224 17.9132C449.201 17.9141 448.203 18.2285 447.365 18.8139C446.461 19.4204 445.724 20.2438 445.22 21.2087C444.695 22.2119 444.425 23.329 444.434 24.4613V36.6141H440.702L440.681 14.8178Z" fill="white"/>
<path d="M469.611 36.2922C468.118 35.6327 466.787 34.6571 465.708 33.4327C464.549 32.0999 463.715 30.5168 463.27 28.8075L466.844 27.3778C467.288 29.1535 468.251 30.7565 469.611 31.9815C470.888 33.1562 472.565 33.8004 474.3 33.783C475.974 33.8367 477.616 33.3171 478.954 32.3104C479.567 31.8305 480.055 31.209 480.375 30.4993C480.695 29.7896 480.838 29.0128 480.791 28.2356C480.809 27.5518 480.674 26.8727 480.397 26.2472C480.12 25.6217 479.708 25.0654 479.19 24.6184C477.627 23.409 475.849 22.5067 473.95 21.9591L471.97 21.2442C469.966 20.5809 468.116 19.5209 466.53 18.1274C465.815 17.4398 465.258 16.6061 464.895 15.6833C464.532 14.7604 464.373 13.7702 464.428 12.7802C464.421 11.3073 464.849 9.86497 465.658 8.63399C466.501 7.33742 467.673 6.28684 469.053 5.58865C470.566 4.80984 472.249 4.41691 473.95 4.44484C475.591 4.40821 477.219 4.75329 478.704 5.45282C479.946 6.03555 481.052 6.87346 481.949 7.91197C482.681 8.74731 483.24 9.71913 483.594 10.7714L480.134 12.2584C479.738 10.9703 478.923 9.85165 477.818 9.08078C476.713 8.30991 475.381 7.93118 474.036 8.0049C472.545 7.96593 471.087 8.44601 469.911 9.36312C469.377 9.75876 468.943 10.2752 468.646 10.8703C468.349 11.4654 468.197 12.1223 468.203 12.7874C468.188 13.3651 468.309 13.9382 468.558 14.4599C468.806 14.9817 469.174 15.4374 469.632 15.7898C470.966 16.7437 472.449 17.4685 474.022 17.9344L476.038 18.6493C478.348 19.4088 480.476 20.6406 482.285 22.2665C483.053 23.0388 483.65 23.9631 484.039 24.98C484.428 25.9969 484.601 27.0839 484.544 28.1713C484.608 29.9921 484.059 31.7816 482.986 33.254C481.983 34.6071 480.624 35.6561 479.061 36.285C477.503 36.9251 475.835 37.2529 474.15 37.2501C472.587 37.2532 471.04 36.9268 469.611 36.2922V36.2922Z" fill="white"/>
<path d="M493.659 36.8131C492.95 36.5394 492.301 36.1289 491.75 35.605C491.173 35.0503 490.73 34.3704 490.457 33.6177C490.162 32.748 490.021 31.8335 490.042 30.9154V18.2266H486.182V14.8452H490.042V8.35425H493.731V14.8452H499.078V18.2266H493.731V30.0719C493.642 31.0534 493.895 32.0354 494.445 32.8527C494.717 33.1895 495.067 33.4552 495.464 33.627C495.861 33.7988 496.294 33.8717 496.726 33.8393C497.556 33.8583 498.376 33.6454 499.092 33.2244V36.7988C498.66 36.9667 498.212 37.0912 497.755 37.1705C497.197 37.2578 496.633 37.2961 496.068 37.2849C495.242 37.2837 494.424 37.1235 493.659 36.8131Z" fill="white"/>
<path d="M504.875 34.9566C503.489 33.4053 502.788 31.2536 502.788 28.5228V14.8188H506.527V27.8937C506.527 31.897 508.326 33.8986 511.924 33.8986C513.078 33.9117 514.207 33.5589 515.148 32.8906C516.096 32.2195 516.852 31.3128 517.343 30.2599C517.849 29.1896 518.11 28.0198 518.108 26.8357V14.8188H521.789V36.5793H518.279V33.3267H518.108C517.401 34.5043 516.394 35.4736 515.191 36.1361C513.924 36.8909 512.476 37.2864 511.002 37.2799C508.307 37.2799 506.262 36.5007 504.875 34.9566Z" fill="white"/>
<path d="M530.553 35.7834C528.952 34.7596 527.652 33.3287 526.786 31.6372C525.86 29.7926 525.377 27.7571 525.377 25.6931C525.377 23.629 525.86 21.5935 526.786 19.7489C527.653 18.0601 528.953 16.6317 530.553 15.6099C532.102 14.6253 533.901 14.1067 535.736 14.1158C537.327 14.091 538.897 14.475 540.297 15.231C541.531 15.8798 542.574 16.8411 543.321 18.019H543.5L543.321 15.038V5.16565H547.01V36.5769H543.5V33.3242H543.321C542.593 34.5355 541.547 35.5244 540.297 36.1837C538.899 36.9455 537.328 37.3322 535.736 37.3061C533.898 37.3066 532.099 36.778 530.553 35.7834V35.7834ZM539.847 32.9239C540.975 32.2347 541.888 31.2444 542.484 30.0645C543.134 28.705 543.471 27.2175 543.471 25.7109C543.471 24.2043 543.134 22.7169 542.484 21.3574C541.886 20.1787 540.973 19.1889 539.847 18.4979C538.771 17.8396 537.533 17.4954 536.272 17.5043C535.009 17.4972 533.769 17.8492 532.698 18.5193C531.579 19.2176 530.67 20.2057 530.067 21.3788C529.418 22.7269 529.081 24.2039 529.081 25.7002C529.081 27.1965 529.418 28.6735 530.067 30.0216C530.669 31.1955 531.578 32.1839 532.698 32.881C533.771 33.5458 535.01 33.895 536.272 33.889C537.541 33.9044 538.789 33.5652 539.875 32.9096L539.847 32.9239Z" fill="white"/>
<path d="M555.888 35.7861C554.239 34.7956 552.895 33.368 552.007 31.6613C551.04 29.8243 550.549 27.7748 550.577 25.6993C550.554 23.6858 551.005 21.6952 551.892 19.8875C552.728 18.1652 554.025 16.7078 555.638 15.6769C557.313 14.6243 559.258 14.0827 561.236 14.1185C563.181 14.0781 565.1 14.5727 566.783 15.5482C568.373 16.4962 569.647 17.8942 570.443 19.5658C571.323 21.4277 571.759 23.4687 571.715 25.5278C571.728 25.8235 571.699 26.1194 571.63 26.4071H554.344C554.356 27.8712 554.766 29.3046 555.531 30.5533C556.204 31.6249 557.152 32.4964 558.276 33.0768C559.325 33.6215 560.49 33.9059 561.672 33.906C564.421 33.906 566.542 32.562 568.034 29.8741L571.322 31.454C570.413 33.1744 569.076 34.6318 567.44 35.686C565.688 36.716 563.697 37.268 561.664 37.2868C559.632 37.3056 557.631 36.7906 555.86 35.7933L555.888 35.7861ZM567.798 23.2831C567.736 22.3675 567.493 21.4734 567.083 20.6524C566.588 19.7234 565.846 18.9491 564.938 18.4149C563.8 17.7587 562.498 17.439 561.185 17.4927C559.607 17.4586 558.075 18.023 556.896 19.0725C555.675 20.1722 554.869 21.6592 554.616 23.2831H567.798Z" fill="white"/>
<path d="M575.519 14.8168H579.093V18.0623H579.264C579.944 16.8848 580.933 15.9156 582.124 15.26C583.399 14.5078 584.854 14.1127 586.334 14.1162C589.001 14.1162 591.024 14.8954 592.411 16.4396C593.798 17.9837 594.498 20.114 594.498 22.8019V36.5773H590.81V23.3738C590.81 19.4563 588.982 17.4951 585.327 17.4904C584.193 17.4775 583.087 17.8338 582.174 18.5055C581.243 19.1814 580.504 20.088 580.029 21.1362C579.518 22.2027 579.254 23.3707 579.257 24.5533V36.5773H575.533L575.519 14.8168Z" fill="white"/>
<path d="M604.228 36.8131C603.517 36.5429 602.868 36.1319 602.32 35.605C601.742 35.0503 601.299 34.3704 601.026 33.6177C600.728 32.7485 600.586 31.8339 600.604 30.9154V18.2266H596.744V14.8452H600.604V8.35425H604.293V14.8452H609.64V18.2266H604.293V30.0719C604.209 31.0531 604.461 32.0338 605.008 32.8527C605.28 33.189 605.629 33.4543 606.027 33.6261C606.424 33.7979 606.856 33.8711 607.288 33.8393C608.121 33.8574 608.942 33.6446 609.661 33.2244V36.7988C609.227 36.9668 608.777 37.0913 608.317 37.1705C607.759 37.2578 607.195 37.2961 606.63 37.2849C605.807 37.2828 604.991 37.1226 604.228 36.8131V36.8131Z" fill="white"/>
<path d="M629.598 35.1282C627.142 33.7272 625.117 31.68 623.743 29.2091C622.345 26.6532 621.613 23.7869 621.613 20.8737C621.613 17.9606 622.345 15.0942 623.743 12.5384C625.117 10.0674 627.142 8.02024 629.598 6.6193C632.107 5.18015 634.955 4.4396 637.847 4.4747C640.064 4.44969 642.259 4.90578 644.281 5.8115C646.207 6.69614 647.915 7.99183 649.285 9.60744L646.655 12.1953C645.605 10.8557 644.263 9.77474 642.73 9.03555C641.18 8.34214 639.496 7.99801 637.797 8.02757C635.636 8.02823 633.511 8.58721 631.628 9.65033C629.733 10.7162 628.164 12.2781 627.089 14.1683C625.982 16.2405 625.404 18.5533 625.404 20.9023C625.404 23.2514 625.982 25.5642 627.089 27.6363C628.164 29.5266 629.733 31.0884 631.628 32.1543C633.532 33.2207 635.68 33.7726 637.862 33.7556C639.735 33.7636 641.585 33.3448 643.272 32.531C644.959 31.7172 646.439 30.5299 647.598 29.059L650.272 31.6897C648.815 33.4388 646.985 34.8407 644.918 35.793C642.494 36.8904 639.847 37.4045 637.189 37.294C634.531 37.1835 631.936 36.4515 629.612 35.1568L629.598 35.1282Z" fill="white"/>
<path d="M653.896 5.16565H657.628V36.5769H653.896V5.16565Z" fill="white"/>
<path d="M664.511 34.9566C663.125 33.4077 662.431 31.2631 662.431 28.5228V14.8188H666.163V27.8937C666.163 31.897 667.959 33.8986 671.553 33.8986C672.707 33.9127 673.836 33.5598 674.777 32.8906C675.725 32.2195 676.481 31.3128 676.972 30.2599C677.481 29.1907 677.743 28.0201 677.736 26.8357V14.8188H681.425V36.5793H677.915V33.3267H677.736C677.029 34.5043 676.023 35.4736 674.82 36.1361C673.553 36.8909 672.105 37.2864 670.631 37.2799C667.964 37.2799 665.941 36.5007 664.511 34.9566Z" fill="white"/>
<path d="M693.222 36.1551C691.981 35.4912 690.943 34.5029 690.219 33.2957H690.041V36.5483H686.466V5.16565H690.248V15.038L690.069 18.019H690.248C691.01 16.8538 692.049 15.8958 693.272 15.231C694.669 14.4673 696.241 14.0829 697.833 14.1158C699.669 14.1063 701.467 14.633 703.008 15.6313C704.608 16.6594 705.909 18.089 706.783 19.7775C707.709 21.6133 708.191 23.6407 708.191 25.6966C708.191 27.7526 707.709 29.7799 706.783 31.6157C705.909 33.3042 704.608 34.7339 703.008 35.762C701.467 36.7603 699.669 37.287 697.833 37.2775C696.224 37.3147 694.634 36.9276 693.222 36.1551V36.1551ZM700.814 32.8882C701.934 32.1911 702.843 31.2027 703.444 30.0287C704.094 28.6807 704.431 27.2036 704.431 25.7074C704.431 24.2111 704.094 22.734 703.444 21.386C702.842 20.2128 701.933 19.2247 700.814 18.5265C699.742 17.8564 698.503 17.5044 697.239 17.5114C695.979 17.5049 694.741 17.8489 693.665 18.5051C692.541 19.1971 691.63 20.1868 691.034 21.3645C690.385 22.724 690.048 24.2115 690.048 25.7181C690.048 27.2246 690.385 28.7122 691.034 30.0716C691.63 31.2494 692.541 32.2391 693.665 32.9311C694.743 33.582 695.98 33.9233 697.239 33.9176C698.504 33.9172 699.743 33.5605 700.814 32.8882V32.8882Z" fill="white"/>
<path d="M713.509 35.5215C711.973 34.4484 710.797 32.9358 710.135 31.1823L713.424 29.7525C713.924 31.0236 714.783 32.1215 715.897 32.9122C716.918 33.6318 718.137 34.0165 719.386 34.0132C720.615 34.0616 721.83 33.7404 722.874 33.091C723.278 32.869 723.617 32.5462 723.859 32.154C724.101 31.7619 724.237 31.3138 724.254 30.8534C724.265 30.4399 724.178 30.0296 723.999 29.6566C723.82 29.2837 723.554 28.9587 723.225 28.7088C722.156 27.998 720.955 27.5116 719.693 27.2791L716.712 26.5642C715.168 26.2308 713.73 25.5239 712.523 24.5054C711.955 24.0211 711.505 23.4144 711.205 22.7309C710.905 22.0475 710.765 21.3051 710.793 20.5594C710.763 19.304 711.172 18.0775 711.951 17.0922C712.77 16.0991 713.838 15.3417 715.046 14.8976C716.394 14.4021 717.821 14.1598 719.257 14.1828C721.045 14.1601 722.807 14.6062 724.368 15.4767C725.848 16.2813 727.003 17.5751 727.635 19.1368L724.347 20.5665C723.924 19.5645 723.166 18.7407 722.202 18.2361C721.216 17.7432 720.124 17.4979 719.021 17.5212C717.963 17.4769 716.913 17.7215 715.983 18.2289C715.578 18.4251 715.234 18.7288 714.989 19.107C714.745 19.4852 714.609 19.9233 714.596 20.3735C714.583 20.7252 714.659 21.0744 714.817 21.3892C714.974 21.7039 715.208 21.9741 715.497 22.175C716.374 22.7326 717.342 23.1341 718.356 23.3616L721.602 24.148C723.414 24.5164 725.09 25.3743 726.449 26.6286C726.965 27.1421 727.373 27.7541 727.648 28.4283C727.923 29.1025 728.06 29.8251 728.05 30.5532C728.059 31.7819 727.676 32.9814 726.956 33.9774C726.166 35.0418 725.104 35.8739 723.882 36.3865C722.469 36.9921 720.944 37.2917 719.407 37.2658C717.304 37.3389 715.234 36.7268 713.509 35.5215V35.5215Z" fill="white"/>
<path d="M115.293 76.9413L121.733 58.4004H124.871L116.779 80.2592H114.542L115.293 76.9413ZM109.273 58.4004L115.653 76.9413L116.449 80.2592H114.212L106.135 58.4004H109.273ZM133.474 80.5594C132.343 80.5594 131.317 80.3692 130.396 79.9889C129.485 79.5986 128.699 79.0531 128.039 78.3525C127.388 77.6519 126.888 76.8212 126.538 75.8604C126.187 74.8996 126.012 73.8486 126.012 72.7077V72.0771C126.012 70.756 126.207 69.58 126.598 68.5491C126.988 67.5082 127.518 66.6274 128.189 65.9068C128.86 65.1862 129.62 64.6407 130.471 64.2704C131.322 63.9001 132.202 63.7149 133.113 63.7149C134.274 63.7149 135.275 63.9151 136.116 64.3155C136.967 64.7158 137.662 65.2763 138.203 65.9969C138.743 66.7075 139.143 67.5482 139.404 68.5191C139.664 69.4799 139.794 70.5308 139.794 71.6718V72.9178H127.664V70.6509H137.017V70.4407C136.977 69.7201 136.826 69.0195 136.566 68.3389C136.316 67.6583 135.916 67.0979 135.365 66.6575C134.815 66.2171 134.064 65.9969 133.113 65.9969C132.483 65.9969 131.902 66.132 131.372 66.4023C130.841 66.6625 130.386 67.0528 130.006 67.5733C129.625 68.0937 129.33 68.7293 129.12 69.4799C128.91 70.2305 128.805 71.0963 128.805 72.0771V72.7077C128.805 73.4783 128.91 74.204 129.12 74.8845C129.34 75.5551 129.655 76.1456 130.066 76.6561C130.486 77.1665 130.991 77.5668 131.582 77.8571C132.182 78.1473 132.863 78.2925 133.624 78.2925C134.605 78.2925 135.435 78.0923 136.116 77.692C136.796 77.2916 137.392 76.7561 137.902 76.0856L139.584 77.4217C139.234 77.9522 138.788 78.4576 138.248 78.938C137.707 79.4184 137.042 79.8088 136.251 80.109C135.47 80.4093 134.544 80.5594 133.474 80.5594ZM146.054 57.1993V80.2592H143.262V57.1993H146.054ZM153.531 57.1993V80.2592H150.738V57.1993H153.531ZM157.254 72.3173V71.972C157.254 70.801 157.424 69.7151 157.764 68.7142C158.105 67.7034 158.595 66.8276 159.236 66.087C159.876 65.3363 160.652 64.7558 161.563 64.3455C162.473 63.9251 163.494 63.7149 164.625 63.7149C165.766 63.7149 166.792 63.9251 167.703 64.3455C168.624 64.7558 169.404 65.3363 170.045 66.087C170.696 66.8276 171.191 67.7034 171.531 68.7142C171.872 69.7151 172.042 70.801 172.042 71.972V72.3173C172.042 73.4883 171.872 74.5743 171.531 75.5751C171.191 76.576 170.696 77.4517 170.045 78.2024C169.404 78.943 168.629 79.5235 167.718 79.9439C166.817 80.3542 165.796 80.5594 164.655 80.5594C163.514 80.5594 162.488 80.3542 161.578 79.9439C160.667 79.5235 159.886 78.943 159.236 78.2024C158.595 77.4517 158.105 76.576 157.764 75.5751C157.424 74.5743 157.254 73.4883 157.254 72.3173ZM160.031 71.972V72.3173C160.031 73.128 160.126 73.8937 160.317 74.6143C160.507 75.3249 160.792 75.9555 161.172 76.5059C161.563 77.0564 162.048 77.4918 162.629 77.8121C163.209 78.1223 163.885 78.2775 164.655 78.2775C165.416 78.2775 166.082 78.1223 166.652 77.8121C167.233 77.4918 167.713 77.0564 168.093 76.5059C168.474 75.9555 168.759 75.3249 168.949 74.6143C169.149 73.8937 169.249 73.128 169.249 72.3173V71.972C169.249 71.1713 169.149 70.4157 168.949 69.7051C168.759 68.9845 168.469 68.3489 168.078 67.7985C167.698 67.238 167.218 66.7976 166.637 66.4773C166.067 66.157 165.396 65.9969 164.625 65.9969C163.865 65.9969 163.194 66.157 162.614 66.4773C162.043 66.7976 161.563 67.238 161.172 67.7985C160.792 68.3489 160.507 68.9845 160.317 69.7051C160.126 70.4157 160.031 71.1713 160.031 71.972ZM178.302 66.5674V80.2592H175.525V64.0152H178.227L178.302 66.5674ZM183.376 63.9251L183.361 66.5073C183.131 66.4573 182.911 66.4273 182.701 66.4173C182.501 66.3972 182.27 66.3872 182.01 66.3872C181.37 66.3872 180.804 66.4873 180.314 66.6875C179.823 66.8877 179.408 67.1679 179.068 67.5282C178.727 67.8885 178.457 68.3189 178.257 68.8193C178.067 69.3098 177.942 69.8502 177.882 70.4407L177.101 70.8911C177.101 69.9103 177.196 68.9895 177.386 68.1287C177.586 67.268 177.892 66.5073 178.302 65.8468C178.712 65.1762 179.233 64.6558 179.863 64.2854C180.504 63.9051 181.265 63.7149 182.145 63.7149C182.346 63.7149 182.576 63.74 182.836 63.79C183.096 63.83 183.276 63.8751 183.376 63.9251ZM192.384 80.5594C191.253 80.5594 190.227 80.3692 189.307 79.9889C188.396 79.5986 187.61 79.0531 186.949 78.3525C186.299 77.6519 185.799 76.8212 185.448 75.8604C185.098 74.8996 184.923 73.8486 184.923 72.7077V72.0771C184.923 70.756 185.118 69.58 185.508 68.5491C185.899 67.5082 186.429 66.6274 187.1 65.9068C187.77 65.1862 188.531 64.6407 189.382 64.2704C190.232 63.9001 191.113 63.7149 192.024 63.7149C193.185 63.7149 194.186 63.9151 195.026 64.3155C195.877 64.7158 196.573 65.2763 197.113 65.9969C197.654 66.7075 198.054 67.5482 198.314 68.5191C198.574 69.4799 198.705 70.5308 198.705 71.6718V72.9178H186.574V70.6509H195.927V70.4407C195.887 69.7201 195.737 69.0195 195.477 68.3389C195.227 67.6583 194.826 67.0979 194.276 66.6575C193.725 66.2171 192.975 65.9969 192.024 65.9969C191.393 65.9969 190.813 66.132 190.282 66.4023C189.752 66.6625 189.297 67.0528 188.916 67.5733C188.536 68.0937 188.241 68.7293 188.03 69.4799C187.82 70.2305 187.715 71.0963 187.715 72.0771V72.7077C187.715 73.4783 187.82 74.204 188.03 74.8845C188.251 75.5551 188.566 76.1456 188.976 76.6561C189.397 77.1665 189.902 77.5668 190.493 77.8571C191.093 78.1473 191.774 78.2925 192.534 78.2925C193.515 78.2925 194.346 78.0923 195.026 77.692C195.707 77.2916 196.303 76.7561 196.813 76.0856L198.494 77.4217C198.144 77.9522 197.699 78.4576 197.158 78.938C196.618 79.4184 195.952 79.8088 195.162 80.109C194.381 80.4093 193.455 80.5594 192.384 80.5594ZM213.102 58.4004V80.2592H210.204V58.4004H213.102ZM220.729 67.4832V80.2592H217.951V64.0152H220.578L220.729 67.4832ZM220.068 71.5217L218.912 71.4766C218.922 70.3657 219.087 69.3398 219.407 68.399C219.728 67.4482 220.178 66.6224 220.759 65.9218C221.339 65.2212 222.03 64.6808 222.83 64.3004C223.641 63.9101 224.537 63.7149 225.518 63.7149C226.318 63.7149 227.039 63.825 227.679 64.0452C228.32 64.2554 228.865 64.5957 229.316 65.0661C229.776 65.5365 230.127 66.147 230.367 66.8977C230.607 67.6383 230.727 68.5441 230.727 69.615V80.2592H227.935V69.585C227.935 68.7343 227.81 68.0537 227.559 67.5432C227.309 67.0228 226.944 66.6475 226.463 66.4173C225.983 66.1771 225.393 66.057 224.692 66.057C224.001 66.057 223.371 66.2021 222.8 66.4923C222.24 66.7826 221.754 67.1829 221.344 67.6934C220.944 68.2038 220.628 68.7893 220.398 69.4499C220.178 70.1004 220.068 70.791 220.068 71.5217ZM244.404 75.9505C244.404 75.5501 244.314 75.1798 244.134 74.8395C243.963 74.4892 243.608 74.1739 243.068 73.8937C242.537 73.6034 241.737 73.3532 240.666 73.143C239.765 72.9529 238.949 72.7277 238.219 72.4675C237.498 72.2072 236.882 71.892 236.372 71.5217C235.872 71.1513 235.486 70.716 235.216 70.2155C234.946 69.7151 234.811 69.1296 234.811 68.459C234.811 67.8185 234.951 67.2129 235.231 66.6425C235.521 66.072 235.927 65.5665 236.447 65.1262C236.977 64.6858 237.613 64.3405 238.354 64.0903C239.094 63.8401 239.92 63.7149 240.831 63.7149C242.132 63.7149 243.243 63.9451 244.164 64.4055C245.084 64.8659 245.79 65.4815 246.28 66.2521C246.771 67.0128 247.016 67.8585 247.016 68.7893H244.239C244.239 68.3389 244.104 67.9035 243.833 67.4832C243.573 67.0528 243.188 66.6975 242.677 66.4173C242.177 66.137 241.561 65.9969 240.831 65.9969C240.06 65.9969 239.435 66.117 238.954 66.3572C238.484 66.5874 238.138 66.8827 237.918 67.243C237.708 67.6033 237.603 67.9836 237.603 68.384C237.603 68.6842 237.653 68.9544 237.753 69.1947C237.863 69.4248 238.053 69.64 238.324 69.8402C238.594 70.0304 238.974 70.2105 239.465 70.3807C239.955 70.5508 240.581 70.721 241.341 70.8911C242.672 71.1914 243.768 71.5517 244.629 71.972C245.49 72.3924 246.13 72.9078 246.551 73.5184C246.971 74.1289 247.181 74.8695 247.181 75.7403C247.181 76.4509 247.031 77.1014 246.731 77.692C246.441 78.2825 246.015 78.7929 245.455 79.2233C244.904 79.6436 244.244 79.9739 243.473 80.2141C242.712 80.4443 241.857 80.5594 240.906 80.5594C239.475 80.5594 238.264 80.3042 237.273 79.7938C236.282 79.2833 235.531 78.6227 235.021 77.8121C234.51 77.0014 234.255 76.1456 234.255 75.2448H237.048C237.088 76.0055 237.308 76.611 237.708 77.0614C238.108 77.5018 238.599 77.8171 239.179 78.0072C239.76 78.1874 240.335 78.2775 240.906 78.2775C241.666 78.2775 242.302 78.1774 242.812 77.9772C243.333 77.777 243.728 77.5018 243.998 77.1515C244.269 76.8012 244.404 76.4008 244.404 75.9505ZM257.63 64.0152V66.147H248.848V64.0152H257.63ZM251.82 60.0668H254.598V76.2357C254.598 76.7862 254.683 77.2015 254.853 77.4818C255.023 77.762 255.243 77.9472 255.513 78.0372C255.784 78.1273 256.074 78.1724 256.384 78.1724C256.614 78.1724 256.855 78.1523 257.105 78.1123C257.365 78.0623 257.56 78.0222 257.69 77.9922L257.705 80.2592C257.485 80.3292 257.195 80.3943 256.835 80.4543C256.484 80.5244 256.059 80.5594 255.558 80.5594C254.878 80.5594 254.252 80.4243 253.682 80.1541C253.111 79.8838 252.656 79.4334 252.316 78.8029C251.985 78.1624 251.82 77.3016 251.82 76.2207V60.0668ZM263.906 64.0152V80.2592H261.113V64.0152H263.906ZM260.903 59.7065C260.903 59.2561 261.038 58.8758 261.308 58.5655C261.589 58.2553 261.999 58.1001 262.539 58.1001C263.07 58.1001 263.475 58.2553 263.755 58.5655C264.046 58.8758 264.191 59.2561 264.191 59.7065C264.191 60.1369 264.046 60.5072 263.755 60.8175C263.475 61.1177 263.07 61.2678 262.539 61.2678C261.999 61.2678 261.589 61.1177 261.308 60.8175C261.038 60.5072 260.903 60.1369 260.903 59.7065ZM275.165 64.0152V66.147H266.383V64.0152H275.165ZM269.355 60.0668H272.133V76.2357C272.133 76.7862 272.218 77.2015 272.388 77.4818C272.558 77.762 272.778 77.9472 273.048 78.0372C273.319 78.1273 273.609 78.1724 273.919 78.1724C274.149 78.1724 274.39 78.1523 274.64 78.1123C274.9 78.0623 275.095 78.0222 275.225 77.9922L275.24 80.2592C275.02 80.3292 274.73 80.3943 274.37 80.4543C274.019 80.5244 273.594 80.5594 273.093 80.5594C272.413 80.5594 271.787 80.4243 271.217 80.1541C270.646 79.8838 270.191 79.4334 269.851 78.8029C269.52 78.1624 269.355 77.3016 269.355 76.2207V60.0668ZM288.362 76.5059V64.0152H291.154V80.2592H288.497L288.362 76.5059ZM288.887 73.083L290.043 73.053C290.043 74.1339 289.928 75.1348 289.698 76.0555C289.478 76.9663 289.117 77.757 288.617 78.4276C288.116 79.0982 287.461 79.6236 286.65 80.0039C285.839 80.3743 284.854 80.5594 283.693 80.5594C282.902 80.5594 282.176 80.4443 281.516 80.2141C280.865 79.9839 280.305 79.6286 279.834 79.1482C279.364 78.6678 278.999 78.0423 278.738 77.2716C278.488 76.5009 278.363 75.5751 278.363 74.4942V64.0152H281.14V74.5242C281.14 75.2549 281.22 75.8604 281.381 76.3408C281.551 76.8112 281.776 77.1865 282.056 77.4668C282.346 77.737 282.667 77.9272 283.017 78.0372C283.377 78.1473 283.748 78.2024 284.128 78.2024C285.309 78.2024 286.245 77.9772 286.935 77.5268C287.626 77.0664 288.121 76.4509 288.422 75.6802C288.732 74.8996 288.887 74.0338 288.887 73.083ZM302.188 64.0152V66.147H293.406V64.0152H302.188ZM296.378 60.0668H299.156V76.2357C299.156 76.7862 299.241 77.2015 299.411 77.4818C299.581 77.762 299.801 77.9472 300.072 78.0372C300.342 78.1273 300.632 78.1724 300.942 78.1724C301.173 78.1724 301.413 78.1523 301.663 78.1123C301.923 78.0623 302.118 78.0222 302.249 77.9922L302.264 80.2592C302.043 80.3292 301.753 80.3943 301.393 80.4543C301.042 80.5244 300.617 80.5594 300.117 80.5594C299.436 80.5594 298.811 80.4243 298.24 80.1541C297.67 79.8838 297.214 79.4334 296.874 78.8029C296.544 78.1624 296.378 77.3016 296.378 76.2207V60.0668ZM312.187 80.5594C311.056 80.5594 310.03 80.3692 309.109 79.9889C308.199 79.5986 307.413 79.0531 306.752 78.3525C306.102 77.6519 305.601 76.8212 305.251 75.8604C304.901 74.8996 304.726 73.8486 304.726 72.7077V72.0771C304.726 70.756 304.921 69.58 305.311 68.5491C305.701 67.5082 306.232 66.6274 306.903 65.9068C307.573 65.1862 308.334 64.6407 309.184 64.2704C310.035 63.9001 310.916 63.7149 311.827 63.7149C312.988 63.7149 313.989 63.9151 314.829 64.3155C315.68 64.7158 316.376 65.2763 316.916 65.9969C317.457 66.7075 317.857 67.5482 318.117 68.5191C318.377 69.4799 318.507 70.5308 318.507 71.6718V72.9178H306.377V70.6509H315.73V70.4407C315.69 69.7201 315.54 69.0195 315.28 68.3389C315.03 67.6583 314.629 67.0979 314.079 66.6575C313.528 66.2171 312.778 65.9969 311.827 65.9969C311.196 65.9969 310.616 66.132 310.085 66.4023C309.555 66.6625 309.099 67.0528 308.719 67.5733C308.339 68.0937 308.044 68.7293 307.833 69.4799C307.623 70.2305 307.518 71.0963 307.518 72.0771V72.7077C307.518 73.4783 307.623 74.204 307.833 74.8845C308.054 75.5551 308.369 76.1456 308.779 76.6561C309.199 77.1665 309.705 77.5668 310.295 77.8571C310.896 78.1473 311.577 78.2925 312.337 78.2925C313.318 78.2925 314.149 78.0923 314.829 77.692C315.51 77.2916 316.105 76.7561 316.616 76.0856L318.297 77.4217C317.947 77.9522 317.502 78.4576 316.961 78.938C316.421 79.4184 315.755 79.8088 314.964 80.109C314.184 80.4093 313.258 80.5594 312.187 80.5594ZM328.641 72.3173V71.972C328.641 70.801 328.811 69.7151 329.152 68.7142C329.492 67.7034 329.982 66.8276 330.623 66.087C331.263 65.3363 332.039 64.7558 332.95 64.3455C333.861 63.9251 334.882 63.7149 336.013 63.7149C337.154 63.7149 338.179 63.9251 339.09 64.3455C340.011 64.7558 340.792 65.3363 341.432 66.087C342.083 66.8276 342.578 67.7034 342.918 68.7142C343.259 69.7151 343.429 70.801 343.429 71.972V72.3173C343.429 73.4883 343.259 74.5743 342.918 75.5751C342.578 76.576 342.083 77.4517 341.432 78.2024C340.792 78.943 340.016 79.5235 339.105 79.9439C338.204 80.3542 337.184 80.5594 336.043 80.5594C334.902 80.5594 333.876 80.3542 332.965 79.9439C332.054 79.5235 331.273 78.943 330.623 78.2024C329.982 77.4517 329.492 76.576 329.152 75.5751C328.811 74.5743 328.641 73.4883 328.641 72.3173ZM331.419 71.972V72.3173C331.419 73.128 331.514 73.8937 331.704 74.6143C331.894 75.3249 332.179 75.9555 332.56 76.5059C332.95 77.0564 333.435 77.4918 334.016 77.8121C334.596 78.1223 335.272 78.2775 336.043 78.2775C336.803 78.2775 337.469 78.1223 338.039 77.8121C338.62 77.4918 339.1 77.0564 339.481 76.5059C339.861 75.9555 340.146 75.3249 340.336 74.6143C340.536 73.8937 340.636 73.128 340.636 72.3173V71.972C340.636 71.1713 340.536 70.4157 340.336 69.7051C340.146 68.9845 339.856 68.3489 339.465 67.7985C339.085 67.238 338.605 66.7976 338.024 66.4773C337.454 66.157 336.783 65.9969 336.013 65.9969C335.252 65.9969 334.581 66.157 334.001 66.4773C333.43 66.7976 332.95 67.238 332.56 67.7985C332.179 68.3489 331.894 68.9845 331.704 69.7051C331.514 70.4157 331.419 71.1713 331.419 71.972ZM351.055 80.2592H348.278V62.3037C348.278 61.1327 348.488 60.1469 348.909 59.3462C349.339 58.5355 349.954 57.925 350.755 57.5146C351.556 57.0943 352.507 56.8841 353.608 56.8841C353.928 56.8841 354.248 56.9041 354.568 56.9441C354.899 56.9842 355.219 57.0442 355.529 57.1243L355.379 59.3912C355.169 59.3412 354.929 59.3062 354.659 59.2861C354.398 59.2661 354.138 59.2561 353.878 59.2561C353.287 59.2561 352.777 59.3762 352.347 59.6164C351.926 59.8466 351.606 60.1869 351.386 60.6373C351.166 61.0877 351.055 61.6432 351.055 62.3037V80.2592ZM354.508 64.0152V66.147H345.711V64.0152H354.508ZM373.124 58.4004V80.2592H370.272V58.4004H373.124ZM380.15 58.4004V60.7724H363.261V58.4004H380.15ZM388.212 80.5594C387.081 80.5594 386.055 80.3692 385.135 79.9889C384.224 79.5986 383.438 79.0531 382.778 78.3525C382.127 77.6519 381.627 76.8212 381.276 75.8604C380.926 74.8996 380.751 73.8486 380.751 72.7077V72.0771C380.751 70.756 380.946 69.58 381.336 68.5491C381.727 67.5082 382.257 66.6274 382.928 65.9068C383.598 65.1862 384.359 64.6407 385.21 64.2704C386.06 63.9001 386.941 63.7149 387.852 63.7149C389.013 63.7149 390.014 63.9151 390.855 64.3155C391.705 64.7158 392.401 65.2763 392.941 65.9969C393.482 66.7075 393.882 67.5482 394.142 68.5191C394.403 69.4799 394.533 70.5308 394.533 71.6718V72.9178H382.402V70.6509H391.755V70.4407C391.715 69.7201 391.565 69.0195 391.305 68.3389C391.055 67.6583 390.654 67.0979 390.104 66.6575C389.553 66.2171 388.803 65.9969 387.852 65.9969C387.221 65.9969 386.641 66.132 386.111 66.4023C385.58 66.6625 385.125 67.0528 384.744 67.5733C384.364 68.0937 384.069 68.7293 383.859 69.4799C383.648 70.2305 383.543 71.0963 383.543 72.0771V72.7077C383.543 73.4783 383.648 74.204 383.859 74.8845C384.079 75.5551 384.394 76.1456 384.804 76.6561C385.225 77.1665 385.73 77.5668 386.321 77.8571C386.921 78.1473 387.602 78.2925 388.362 78.2925C389.343 78.2925 390.174 78.0923 390.855 77.692C391.535 77.2916 392.131 76.7561 392.641 76.0856L394.323 77.4217C393.972 77.9522 393.527 78.4576 392.986 78.938C392.446 79.4184 391.78 79.8088 390.99 80.109C390.209 80.4093 389.283 80.5594 388.212 80.5594ZM404.276 78.2775C404.937 78.2775 405.547 78.1423 406.108 77.8721C406.668 77.6019 407.129 77.2316 407.489 76.7612C407.849 76.2807 408.054 75.7353 408.104 75.1247H410.747C410.697 76.0856 410.371 76.9813 409.771 77.8121C409.18 78.6328 408.405 79.2983 407.444 79.8088C406.483 80.3092 405.427 80.5594 404.276 80.5594C403.055 80.5594 401.989 80.3442 401.078 79.9139C400.178 79.4835 399.427 78.893 398.826 78.1423C398.236 77.3917 397.791 76.531 397.49 75.5601C397.2 74.5793 397.055 73.5434 397.055 72.4524V71.8219C397.055 70.731 397.2 69.7001 397.49 68.7293C397.791 67.7484 398.236 66.8827 398.826 66.132C399.427 65.3814 400.178 64.7909 401.078 64.3605C401.989 63.9301 403.055 63.7149 404.276 63.7149C405.547 63.7149 406.658 63.9752 407.609 64.4956C408.56 65.0061 409.305 65.7067 409.846 66.5974C410.396 67.4782 410.697 68.479 410.747 69.6H408.104C408.054 68.9294 407.864 68.3239 407.534 67.7834C407.214 67.243 406.773 66.8126 406.213 66.4923C405.662 66.162 405.017 65.9969 404.276 65.9969C403.425 65.9969 402.71 66.1671 402.129 66.5073C401.559 66.8376 401.103 67.288 400.763 67.8585C400.433 68.419 400.193 69.0445 400.043 69.7351C399.902 70.4157 399.832 71.1113 399.832 71.8219V72.4524C399.832 73.1631 399.902 73.8637 400.043 74.5543C400.183 75.2448 400.418 75.8704 400.748 76.4309C401.088 76.9913 401.544 77.4417 402.114 77.782C402.695 78.1123 403.415 78.2775 404.276 78.2775ZM416.647 57.1993V80.2592H413.869V57.1993H416.647ZM415.986 71.5217L414.83 71.4766C414.84 70.3657 415.005 69.3398 415.326 68.399C415.646 67.4482 416.096 66.6224 416.677 65.9218C417.257 65.2212 417.948 64.6808 418.749 64.3004C419.559 63.9101 420.455 63.7149 421.436 63.7149C422.237 63.7149 422.957 63.825 423.598 64.0452C424.238 64.2554 424.784 64.5957 425.234 65.0661C425.695 65.5365 426.045 66.147 426.285 66.8977C426.525 67.6383 426.645 68.5441 426.645 69.615V80.2592H423.853V69.585C423.853 68.7343 423.728 68.0537 423.478 67.5432C423.227 67.0228 422.862 66.6475 422.382 66.4173C421.901 66.1771 421.311 66.057 420.61 66.057C419.92 66.057 419.289 66.2021 418.719 66.4923C418.158 66.7826 417.673 67.1829 417.262 67.6934C416.862 68.2038 416.547 68.7893 416.316 69.4499C416.096 70.1004 415.986 70.791 415.986 71.5217ZM433.581 67.4832V80.2592H430.804V64.0152H433.431L433.581 67.4832ZM432.921 71.5217L431.765 71.4766C431.775 70.3657 431.94 69.3398 432.26 68.399C432.58 67.4482 433.031 66.6224 433.611 65.9218C434.192 65.2212 434.882 64.6808 435.683 64.3004C436.494 63.9101 437.39 63.7149 438.37 63.7149C439.171 63.7149 439.892 63.825 440.532 64.0452C441.173 64.2554 441.718 64.5957 442.169 65.0661C442.629 65.5365 442.979 66.147 443.22 66.8977C443.46 67.6383 443.58 68.5441 443.58 69.615V80.2592H440.788V69.585C440.788 68.7343 440.662 68.0537 440.412 67.5432C440.162 67.0228 439.797 66.6475 439.316 66.4173C438.836 66.1771 438.245 66.057 437.545 66.057C436.854 66.057 436.224 66.2021 435.653 66.4923C435.093 66.7826 434.607 67.1829 434.197 67.6934C433.797 68.2038 433.481 68.7893 433.251 69.4499C433.031 70.1004 432.921 70.791 432.921 71.5217ZM447.063 72.3173V71.972C447.063 70.801 447.233 69.7151 447.573 68.7142C447.914 67.7034 448.404 66.8276 449.045 66.087C449.685 65.3363 450.461 64.7558 451.372 64.3455C452.282 63.9251 453.303 63.7149 454.434 63.7149C455.575 63.7149 456.601 63.9251 457.512 64.3455C458.433 64.7558 459.213 65.3363 459.854 66.087C460.504 66.8276 461 67.7034 461.34 68.7142C461.68 69.7151 461.851 70.801 461.851 71.972V72.3173C461.851 73.4883 461.68 74.5743 461.34 75.5751C461 76.576 460.504 77.4517 459.854 78.2024C459.213 78.943 458.438 79.5235 457.527 79.9439C456.626 80.3542 455.605 80.5594 454.464 80.5594C453.323 80.5594 452.297 80.3542 451.387 79.9439C450.476 79.5235 449.695 78.943 449.045 78.2024C448.404 77.4517 447.914 76.576 447.573 75.5751C447.233 74.5743 447.063 73.4883 447.063 72.3173ZM449.84 71.972V72.3173C449.84 73.128 449.935 73.8937 450.126 74.6143C450.316 75.3249 450.601 75.9555 450.981 76.5059C451.372 77.0564 451.857 77.4918 452.438 77.8121C453.018 78.1223 453.694 78.2775 454.464 78.2775C455.225 78.2775 455.89 78.1223 456.461 77.8121C457.041 77.4918 457.522 77.0564 457.902 76.5059C458.283 75.9555 458.568 75.3249 458.758 74.6143C458.958 73.8937 459.058 73.128 459.058 72.3173V71.972C459.058 71.1713 458.958 70.4157 458.758 69.7051C458.568 68.9845 458.278 68.3489 457.887 67.7985C457.507 67.238 457.026 66.7976 456.446 66.4773C455.875 66.157 455.205 65.9969 454.434 65.9969C453.674 65.9969 453.003 66.157 452.422 66.4773C451.852 66.7976 451.372 67.238 450.981 67.7985C450.601 68.3489 450.316 68.9845 450.126 69.7051C449.935 70.4157 449.84 71.1713 449.84 71.972ZM468.351 57.1993V80.2592H465.559V57.1993H468.351ZM472.074 72.3173V71.972C472.074 70.801 472.245 69.7151 472.585 68.7142C472.925 67.7034 473.416 66.8276 474.056 66.087C474.697 65.3363 475.472 64.7558 476.383 64.3455C477.294 63.9251 478.315 63.7149 479.446 63.7149C480.587 63.7149 481.613 63.9251 482.523 64.3455C483.444 64.7558 484.225 65.3363 484.865 66.087C485.516 66.8276 486.011 67.7034 486.352 68.7142C486.692 69.7151 486.862 70.801 486.862 71.972V72.3173C486.862 73.4883 486.692 74.5743 486.352 75.5751C486.011 76.576 485.516 77.4517 484.865 78.2024C484.225 78.943 483.449 79.5235 482.538 79.9439C481.638 80.3542 480.617 80.5594 479.476 80.5594C478.335 80.5594 477.309 80.3542 476.398 79.9439C475.487 79.5235 474.707 78.943 474.056 78.2024C473.416 77.4517 472.925 76.576 472.585 75.5751C472.245 74.5743 472.074 73.4883 472.074 72.3173ZM474.852 71.972V72.3173C474.852 73.128 474.947 73.8937 475.137 74.6143C475.327 75.3249 475.612 75.9555 475.993 76.5059C476.383 77.0564 476.869 77.4918 477.449 77.8121C478.03 78.1223 478.705 78.2775 479.476 78.2775C480.236 78.2775 480.902 78.1223 481.472 77.8121C482.053 77.4918 482.533 77.0564 482.914 76.5059C483.294 75.9555 483.579 75.3249 483.769 74.6143C483.97 73.8937 484.07 73.128 484.07 72.3173V71.972C484.07 71.1713 483.97 70.4157 483.769 69.7051C483.579 68.9845 483.289 68.3489 482.899 67.7985C482.518 67.238 482.038 66.7976 481.457 66.4773C480.887 66.157 480.216 65.9969 479.446 65.9969C478.685 65.9969 478.014 66.157 477.434 66.4773C476.864 66.7976 476.383 67.238 475.993 67.7985C475.612 68.3489 475.327 68.9845 475.137 69.7051C474.947 70.4157 474.852 71.1713 474.852 71.972ZM500.869 64.0152H503.391V79.9139C503.391 81.3451 503.101 82.5661 502.521 83.577C501.94 84.5879 501.129 85.3535 500.088 85.874C499.058 86.4044 497.867 86.6697 496.515 86.6697C495.955 86.6697 495.294 86.5796 494.534 86.3994C493.783 86.2293 493.042 85.934 492.312 85.5137C491.591 85.1033 490.986 84.5478 490.495 83.8472L491.951 82.1958C492.632 83.0165 493.343 83.587 494.083 83.9073C494.834 84.2276 495.575 84.3877 496.305 84.3877C497.186 84.3877 497.947 84.2226 498.587 83.8923C499.228 83.562 499.723 83.0716 500.073 82.421C500.434 81.7805 500.614 80.9898 500.614 80.049V67.5883L500.869 64.0152ZM489.685 72.3173V72.0021C489.685 70.761 489.83 69.635 490.12 68.6242C490.42 67.6033 490.846 66.7275 491.396 65.9969C491.956 65.2663 492.632 64.7058 493.423 64.3155C494.213 63.9151 495.104 63.7149 496.095 63.7149C497.116 63.7149 498.007 63.8951 498.767 64.2554C499.538 64.6057 500.189 65.1212 500.719 65.8017C501.259 66.4723 501.685 67.283 501.995 68.2338C502.305 69.1846 502.521 70.2606 502.641 71.4616V72.8428C502.531 74.0338 502.315 75.1047 501.995 76.0555C501.685 77.0064 501.259 77.8171 500.719 78.4876C500.189 79.1582 499.538 79.6737 498.767 80.034C497.997 80.3843 497.096 80.5594 496.065 80.5594C495.094 80.5594 494.213 80.3542 493.423 79.9439C492.642 79.5335 491.971 78.958 491.411 78.2174C490.851 77.4768 490.42 76.606 490.12 75.6052C489.83 74.5943 489.685 73.4983 489.685 72.3173ZM492.462 72.0021V72.3173C492.462 73.128 492.542 73.8887 492.702 74.5993C492.872 75.3099 493.127 75.9354 493.468 76.4759C493.818 77.0164 494.263 77.4417 494.804 77.752C495.344 78.0523 495.99 78.2024 496.741 78.2024C497.661 78.2024 498.422 78.0072 499.023 77.6169C499.623 77.2266 500.098 76.7111 500.449 76.0706C500.809 75.43 501.089 74.7344 501.289 73.9838V70.3657C501.179 69.8152 501.009 69.2847 500.779 68.7743C500.559 68.2538 500.269 67.7934 499.908 67.3931C499.558 66.9828 499.123 66.6575 498.602 66.4173C498.082 66.1771 497.471 66.057 496.771 66.057C496.01 66.057 495.354 66.2171 494.804 66.5374C494.263 66.8476 493.818 67.278 493.468 67.8285C493.127 68.3689 492.872 68.9995 492.702 69.7201C492.542 70.4307 492.462 71.1914 492.462 72.0021ZM512.174 78.5777L516.693 64.0152H519.665L513.15 82.7663C513 83.1667 512.799 83.597 512.549 84.0574C512.309 84.5278 511.999 84.9732 511.618 85.3936C511.238 85.8139 510.778 86.1542 510.237 86.4144C509.707 86.6847 509.071 86.8198 508.331 86.8198C508.11 86.8198 507.83 86.7898 507.49 86.7297C507.15 86.6697 506.909 86.6196 506.769 86.5796L506.754 84.3276C506.834 84.3377 506.959 84.3477 507.13 84.3577C507.31 84.3777 507.435 84.3877 507.505 84.3877C508.135 84.3877 508.671 84.3026 509.111 84.1325C509.552 83.9723 509.922 83.6971 510.222 83.3068C510.532 82.9264 510.798 82.401 511.018 81.7304L512.174 78.5777ZM508.856 64.0152L513.075 76.626L513.795 79.5535L511.799 80.5744L505.823 64.0152H508.856Z" fill="white"/>
</svg>
