<svg width="283" height="87" viewBox="0 0 283 87" fill="none" xmlns="http://www.w3.org/2000/svg">
<path d="M25.8122 11.8471L20.1601 38.9234H9.82484L0.458496 1.24261H9.23272L13.9697 22.0209C14.508 24.3894 14.0774 27.673 14.0774 30.1492H15.5308C15.5846 27.673 15.3155 24.4432 15.9076 22.0209L21.2367 1.24261H32.0026L37.3856 22.0209C38.0315 24.4432 37.7086 27.673 37.7624 30.1492H39.2696C39.2158 27.673 38.7852 24.3894 39.3773 22.0209L44.0605 1.24261H52.8347L43.4683 38.9234H33.1331L27.4271 11.8471C26.9427 9.53239 27.3733 6.4641 27.3733 4.09559H25.8661C25.8661 6.4641 26.2967 9.53239 25.8122 11.8471Z" fill="#FF6BB2"/>
<path d="M53.3461 25.5198C53.3461 16.4226 59.6441 11.2011 69.7103 11.2011C79.7226 11.2011 86.0206 17.0147 86.0206 25.5198C86.0206 34.0249 79.7226 39.7847 69.7103 39.7847C59.6441 39.7847 53.3461 34.617 53.3461 25.5198ZM62.4971 25.5198C62.4971 28.9111 64.1658 31.5487 69.6564 31.5487C75.147 31.5487 76.8696 28.9111 76.8696 25.5198C76.8696 22.1286 75.147 19.3832 69.6564 19.3832C64.1658 19.3832 62.4971 22.1286 62.4971 25.5198Z" fill="#FF6BB2"/>
<path d="M117.437 13.6235C119.159 12.3315 121.42 11.2011 124.219 11.2011C129.979 11.2011 134.447 14.3232 134.447 20.4598V38.9234H125.942V25.3045C125.942 20.1907 124.542 17.876 121.636 17.876C118.46 17.876 117.114 20.1907 117.114 25.3045V38.9234H108.609V25.3045C108.609 20.1907 107.209 17.876 104.249 17.876C101.073 17.876 99.1887 20.1907 99.1887 25.3045V38.9234H90.6836V12.0086H99.1887V12.3315C99.1887 14.7 98.0044 17.553 97.3047 19.8139L98.7042 20.2445C99.404 17.9837 99.6732 14.7 101.342 13.0313C102.795 11.6318 104.518 11.2011 107.102 11.2011C109.362 11.2011 111.3 11.6318 112.7 12.816C114.476 14.3232 113.507 17.7145 113.131 20.0292L114.584 20.2983C115.015 17.9298 115.499 15.023 117.437 13.6235Z" fill="#FF6BB2"/>
<path d="M157.769 39.7847C145.926 39.7847 139.467 33.3251 139.467 25.3045C139.467 17.2839 146.465 11.2011 156.369 11.2011C166.543 11.2011 172.841 17.876 172.787 25.4122C172.787 26.0043 172.787 27.2962 172.787 27.7807L150.071 27.7268C150.071 30.0953 152.332 32.7868 156.961 32.7868C159.922 32.7868 161.752 31.9794 162.29 31.2258H172.195C171.388 34.0249 167.027 39.7847 157.769 39.7847ZM150.071 22.7745H162.667C162.667 19.6524 160.353 17.4992 156.584 17.4992C152.763 17.4992 150.071 19.9215 150.071 22.7745Z" fill="#FF6BB2"/>
<path d="M189.515 13.3005C191.506 11.7932 193.983 11.2011 197.159 11.2011C202.595 11.2011 206.74 14.3232 206.74 20.4598V38.9234H198.235V26.5964C198.235 21.9132 196.674 19.8677 193.337 19.8677C189.676 19.8677 186.662 21.9671 186.662 26.5964V38.9234H178.157V12.0086H186.662V12.2239C186.662 14.8077 185.316 17.8222 184.401 20.2445L185.8 20.7828C186.716 18.3605 187.469 14.8615 189.515 13.3005Z" fill="#FF6BB2"/>
<path d="M18.7798 86.0248H9.73646V56.8491H0.370117V48.344H28.1462V56.8491H18.7798V86.0248Z" fill="#EC350E"/>
<path d="M45.9032 86.8861C34.0607 86.8861 27.6012 80.4265 27.6012 72.4059C27.6012 64.3852 34.599 58.3025 44.5036 58.3025C54.6774 58.3025 60.9755 64.9774 60.9217 72.5135C60.9217 73.1056 60.9217 74.3976 60.9217 74.882L38.2056 74.8282C38.2056 77.1967 40.4664 79.8882 45.0958 79.8882C48.0564 79.8882 49.8866 79.0807 50.4249 78.3271H60.3295C59.5221 81.1263 55.1619 86.8861 45.9032 86.8861ZM38.2056 69.8759H50.8017C50.8017 66.7537 48.487 64.6005 44.719 64.6005C40.8971 64.6005 38.2056 67.0229 38.2056 69.8759Z" fill="#EC350E"/>
<path d="M65.2617 72.4597C65.2617 63.1471 71.1291 58.3025 80.1186 58.3025C89.5926 58.3025 95.0833 63.6854 95.5677 70.145H86.3629C86.4705 70.7371 85.3401 66.2154 79.8495 66.2693C76.3506 66.2693 73.6591 68.261 73.6591 72.352C73.6053 76.3893 76.0814 78.8654 79.7956 78.8654C85.0709 78.9193 86.6858 74.3976 86.5243 74.9359H95.7292C94.7603 81.8799 89.162 86.8861 80.1725 86.8861C70.9138 86.8861 65.2617 81.6646 65.2617 72.4597Z" fill="#EC350E"/>
<path d="M111.192 60.1327C113.237 58.7331 115.606 58.3025 118.728 58.3025C124.165 58.3025 128.31 61.4246 128.31 67.5612V86.0248H119.804V73.6978C119.804 69.0146 118.243 66.9691 114.906 66.9691C111.246 66.9691 108.231 69.0684 108.231 73.6978V86.0248H99.726V46.9444H108.231V59.0023C108.231 61.6399 106.885 64.762 105.916 67.2382L107.262 67.7765C108.231 65.3003 109.092 61.7476 111.192 60.1327Z" fill="#EC350E"/>
<path d="M132.953 56.6876V48.344H141.942V56.6876H132.953ZM133.276 86.0248V59.1099H141.673V86.0248H133.276Z" fill="#EC350E"/>
<path d="M163.947 86.8861C152.105 86.8861 145.645 80.4265 145.645 72.4059C145.645 64.3852 152.643 58.3025 162.548 58.3025C172.721 58.3025 179.02 64.9774 178.966 72.5135C178.966 73.1056 178.966 74.3976 178.966 74.882L156.25 74.8282C156.25 77.1967 158.51 79.8882 163.14 79.8882C166.1 79.8882 167.931 79.0807 168.469 78.3271H178.374C177.566 81.1263 173.206 86.8861 163.947 86.8861ZM156.25 69.8759H168.846C168.846 66.7537 166.531 64.6005 162.763 64.6005C158.941 64.6005 156.25 67.0229 156.25 69.8759Z" fill="#EC350E"/>
<path d="M209.112 76.4969C209.112 81.3416 204.914 86.8861 195.117 86.8861C183.705 86.8861 181.282 79.942 181.282 75.7971H189.788C189.788 76.6584 190.972 78.9731 196.301 78.9731C200.177 78.9731 200.5 77.3044 200.5 76.9814C200.5 73.4825 181.336 75.3127 181.336 66.4308C181.336 62.232 184.997 58.3025 194.74 58.3025C206.69 58.3025 208.682 64.5467 208.628 67.5612H200.123C200.123 66.2693 198.346 64.8697 194.094 64.8697C192.048 64.8697 189.788 65.085 189.788 66.2693C189.788 68.8531 209.112 65.731 209.112 76.4969Z" fill="#EC350E"/>
<path d="M230.45 75.1515C229.319 76.2819 227.274 76.6587 225.82 77.2508L226.359 78.6504C227.866 78.0583 229.588 76.9817 231.15 76.9817H244.822V86.0251H216.346L216.293 77.6815C217.315 76.7664 221.998 72.1908 228.512 66.431C236.748 59.2179 233.357 56.3649 230.45 56.3649C226.789 56.3649 226.09 61.4787 226.09 63.1474H217.154C217.154 57.6568 221.083 47.5368 233.841 47.5368C243.154 47.5368 247.675 57.8721 242.023 63.6857C237.663 68.2074 232.98 72.7291 230.45 75.1515ZM216.346 77.6815C216.077 77.8968 216.077 77.9506 216.346 77.6815Z" fill="#FAF2E1"/>
<path d="M230.45 28.0508C229.319 29.1812 227.274 29.558 225.82 30.1501L226.359 31.5497C227.866 30.9576 229.588 29.881 231.15 29.881H244.822V38.9244H216.346L216.293 30.5808C217.315 29.6656 221.998 25.0901 228.512 19.3303C236.748 12.1171 233.357 9.26417 230.45 9.26417C226.789 9.26417 226.09 14.378 226.09 16.0467H217.154C217.154 10.5561 221.083 0.436096 233.841 0.436096C243.154 0.436096 247.675 10.7714 242.023 16.585C237.663 21.1067 232.98 25.6284 230.45 28.0508ZM216.346 30.5808C216.077 30.7961 216.077 30.8499 216.346 30.5808Z" fill="#FAF2E1"/>
<path d="M248.807 71.7507L264.787 47.3881V47.3352H277.167L277.558 70.0589H282.45V78.2535H277.558V86.0252H269.123V78.3063H248.807V71.7507ZM267.575 59.8024L261.236 68.1027C260.287 69.3187 258.49 69.9003 257.193 70.5347L257.792 71.8564C259.089 71.1691 260.637 70.1117 262.134 70.1117L269.123 70.0589V60.3839C269.123 58.8508 270.121 57.0532 270.57 55.6258L269.272 55.15C268.823 56.5774 268.524 58.5864 267.575 59.8024Z" fill="#FAF2E1"/>
<path d="M247.125 20.0839C247.125 8.88736 252.885 0.436096 264.243 0.436096C275.547 0.436096 281.307 8.88736 281.307 20.0839C281.307 31.2805 275.547 39.7856 264.243 39.7856C252.885 39.7856 247.125 31.2805 247.125 20.0839ZM256.545 20.1378C256.545 25.6822 258.698 30.7961 264.243 30.7961C269.733 30.7961 271.887 25.6822 271.887 20.1378C271.887 14.5395 269.733 9.53332 264.243 9.53332C258.698 9.53332 256.545 14.5395 256.545 20.1378Z" fill="#FAF2E1"/>
</svg>
